<svg width="18" height="18" viewBox="0 0 18 18" fill="none" xmlns="http://www.w3.org/2000/svg">
<path d="M4.875 15.375V14.25H8.4375V12H3.23081C2.85194 12 2.53125 11.8688 2.26875 11.6063C2.00625 11.3438 1.875 11.0231 1.875 10.6442V3.98081C1.875 3.60194 2.00625 3.28125 2.26875 3.01875C2.53125 2.75625 2.85194 2.625 3.23081 2.625H14.7692C15.1481 2.625 15.4688 2.75625 15.7313 3.01875C15.9938 3.28125 16.125 3.60194 16.125 3.98081V10.6442C16.125 11.0231 15.9938 11.3438 15.7313 11.6063C15.4688 11.8688 15.1481 12 14.7692 12H9.5625V14.25H13.125V15.375H4.875ZM3 10.6442C3 10.7019 3.02406 10.7549 3.07219 10.803C3.12019 10.851 3.17306 10.875 3.23081 10.875H14.7692C14.8269 10.875 14.8798 10.851 14.9278 10.803C14.9759 10.7549 15 10.7019 15 10.6442V3.98081C15 3.92306 14.9759 3.87019 14.9278 3.82219C14.8798 3.77406 14.8269 3.75 14.7692 3.75H3.23081C3.17306 3.75 3.12019 3.77406 3.07219 3.82219C3.02406 3.87019 3 3.92306 3 3.98081V10.6442ZM3 10.6442V3.75V10.875V10.6442Z" fill="#5B5A59"/>
</svg>