<svg width="30" height="30" viewBox="0 0 30 30" fill="none" xmlns="http://www.w3.org/2000/svg">
<rect width="30" height="30" rx="15" fill="#F7F6F5"/>
<path d="M9 20.25V18.75H10.5V13.5C10.5 12.4625 10.8125 11.5406 11.4375 10.7344C12.0625 9.92812 12.875 9.4 13.875 9.15V8.625C13.875 8.3125 13.9844 8.04688 14.2031 7.82812C14.4219 7.60937 14.6875 7.5 15 7.5C15.3125 7.5 15.5781 7.60937 15.7969 7.82812C16.0156 8.04688 16.125 8.3125 16.125 8.625V9.15C17.125 9.4 17.9375 9.92812 18.5625 10.7344C19.1875 11.5406 19.5 12.4625 19.5 13.5V18.75H21V20.25H9ZM15 22.5C14.5875 22.5 14.2344 22.3531 13.9406 22.0594C13.6469 21.7656 13.5 21.4125 13.5 21H16.5C16.5 21.4125 16.3531 21.7656 16.0594 22.0594C15.7656 22.3531 15.4125 22.5 15 22.5ZM12 18.75H18V13.5C18 12.675 17.7063 11.9688 17.1187 11.3813C16.5312 10.7938 15.825 10.5 15 10.5C14.175 10.5 13.4688 10.7938 12.8813 11.3813C12.2938 11.9688 12 12.675 12 13.5V18.75Z" fill="#1C1B1F"/>
<circle cx="25.5" cy="5.5" r="3.5" fill="#6666FE"/>
</svg>
